# xmcd CD database file
#
# Track frame offsets:
#	150
#	24272
#	47807
#	68662
#	91065
#	107545
#	129827
#	151362
#	172817
#	194877
#
# Disc length: 2869 seconds
#
# Revision: 0
# Processed by: cddbd v1.5PL3 Copyright (c) Steve Scherf et al.
# Submitted via: CDex 1.40Release
#
DISCID=740b330a
DTITLE=八神純子 - Mellow cafe
DYEAR=1992
DGENRE=Pop
TTITLE0=Paradise
TTITLE1=Mellow Cafe
TTITLE2=Sympathy
TTITLE3=鳳仙花
TTITLE4=Bluebird
TTITLE5=Eurasian
TTITLE6=If You Ever
TTITLE7=Love Light
TTITLE8=さよなら夏の光
TTITLE9=Love In The Key Of ''J''
EXTD=YEAR: 1992 ID3G: 13
EXTT0=
EXTT1=
EXTT2=
EXTT3=
EXTT4=
EXTT5=
EXTT6=
EXTT7=
EXTT8=
EXTT9=
PLAYORDER=
